<svg xmlns="http://www.w3.org/2000/svg" version="1.1" xmlns:xlink="http://www.w3.org/1999/xlink" xmlns:svgjs="http://svgjs.dev/svgjs" width="2000" height="310" viewBox="0 0 2000 310"><g transform="matrix(1,0,0,1,-1.0020671834626,0.6987916666665797)"><svg viewBox="0 0 387 60" data-background-color="#ffffff" preserveAspectRatio="xMidYMid meet" height="310" width="2000" xmlns="http://www.w3.org/2000/svg" xmlns:xlink="http://www.w3.org/1999/xlink"><g id="tight-bounds" transform="matrix(1,0,0,1,0.1939000000000135,-0.135249999999985)"><svg viewBox="0 0 386.6122 60.2705" height="60.2705" width="386.6122"><g><svg viewBox="0 0 386.6122 60.2705" height="60.2705" width="386.6122"><g><svg viewBox="0 0 386.6122 60.2705" height="60.2705" width="386.6122"><g id="textblocktransform"><svg viewBox="0 0 386.6122 60.2705" height="60.2705" width="386.6122" id="textblock"><g><svg viewBox="0 0 386.6122 60.2705" height="60.2705" width="386.6122"><g><svg><g></g><g></g></svg></g><g><svg><g></g><g><svg></svg></g></svg></g><g id="text-0"><svg viewBox="0 0 386.6122 60.2705" height="60.2705" width="386.6122"><g><svg xmlns="http://www.w3.org/2000/svg" xmlns:xlink="http://www.w3.org/1999/xlink" version="1.1" x="0" y="0" viewBox="12.8 12.8 74.5 74.5" style="enable-background:new 0 0 100 100;" xml:space="preserve" height="60.2705" width="60.2705" class="icon-cg-0" data-fill-palette-color="accent" id="cg-0"><g fill="#ffffff" data-fill-palette-color="accent"><path d="M80.2 19.8v60.5H19.8V19.8H80.2M87.2 12.8H12.8v74.5h74.5V12.8L87.2 12.8z" fill="#ffffff" data-fill-palette-color="accent"></path></g><rect x="34.9" y="46.5" width="30.2" height="7" fill="#ffffff" data-fill-palette-color="accent"></rect></svg></g><g transform="matrix(1,0,0,1,74.5,0)"><svg width="312.1122" viewBox="3.9 -36.75 192.88 37.25" height="60.2705" data-palette-color="#243cfc"><path d="M3.9 0L3.9-36.75 12-36.75Q18.85-36.75 22.03-33.83 25.2-30.9 25.2-25.8L25.2-25.8Q25.2-19.9 21.75-16.75 18.3-13.6 11.5-13.6L11.5-13.6 9.55-13.6 9.55 0 3.9 0ZM9.55-18.55L11.65-18.55Q16.05-18.55 17.8-20.5 19.55-22.45 19.55-25.2L19.55-25.2Q19.55-28.15 17.85-30 16.15-31.85 12.15-31.85L12.15-31.85 9.55-31.85 9.55-18.55ZM29.9 0L29.9-22.95 35.3-22.95 35.3-18.45Q36.1-20.75 37.9-22.15 39.7-23.55 42-23.55L42-23.55Q43.6-23.55 44.2-23.25L44.2-23.25 43.45-17.8Q43-18.1 41.5-18.1L41.5-18.1Q39.15-18.1 37.22-16.6 35.3-15.1 35.3-11.8L35.3-11.8 35.3 0 29.9 0ZM58.84 0.5Q54.75 0.5 52-1.13 49.25-2.75 47.95-5.48 46.65-8.2 46.65-11.45L46.65-11.45Q46.65-15.1 48.17-17.85 49.7-20.6 52.4-22.08 55.09-23.55 58.5-23.55L58.5-23.55Q63.8-23.55 66.37-20.63 68.94-17.7 68.94-12.4L68.94-12.4Q68.94-11.05 68.8-9.6L68.8-9.6 52.3-9.6Q52.84-6.55 54.47-5.2 56.09-3.85 59-3.85L59-3.85Q61.39-3.85 62.95-4.25 64.5-4.65 65.8-5.35L65.8-5.35 67.44-1.5Q66.19-0.7 64.05-0.1 61.89 0.5 58.84 0.5L58.84 0.5ZM52.3-13.35L63.7-13.35Q63.75-16.45 62.34-17.73 60.95-19 58.34-19L58.34-19Q53.09-19 52.3-13.35L52.3-13.35ZM82.49 0.5Q80.09 0.5 77.52-0.13 74.94-0.75 73.84-1.6L73.84-1.6 75.64-5.85Q78.64-3.75 82.49-3.75L82.49-3.75Q86.34-3.75 86.34-6L86.34-6Q86.34-7 85.54-7.55 84.74-8.1 82.69-8.85L82.69-8.85 80.79-9.55Q77.79-10.75 76.04-12.43 74.29-14.1 74.29-16.85L74.29-16.85Q74.29-20 76.77-21.78 79.24-23.55 83.39-23.55L83.39-23.55Q85.44-23.55 87.42-23.1 89.39-22.65 90.44-21.95L90.44-21.95 88.49-17.65Q87.84-18.3 86.42-18.78 84.99-19.25 83.24-19.25L83.24-19.25Q79.69-19.25 79.69-17.1L79.69-17.1Q79.69-15.9 80.64-15.28 81.59-14.65 83.74-13.9L83.74-13.9Q83.94-13.85 85.29-13.35L85.29-13.35Q88.49-12.1 90.04-10.5 91.59-8.9 91.59-6.4L91.59-6.4Q91.59-3 89.02-1.25 86.44 0.5 82.49 0.5L82.49 0.5ZM108.04 0.5Q103.94 0.5 101.19-1.13 98.44-2.75 97.14-5.48 95.84-8.2 95.84-11.45L95.84-11.45Q95.84-15.1 97.37-17.85 98.89-20.6 101.59-22.08 104.29-23.55 107.69-23.55L107.69-23.55Q112.99-23.55 115.57-20.63 118.14-17.7 118.14-12.4L118.14-12.4Q118.14-11.05 117.99-9.6L117.99-9.6 101.49-9.6Q102.04-6.55 103.67-5.2 105.29-3.85 108.19-3.85L108.19-3.85Q110.59-3.85 112.14-4.25 113.69-4.65 114.99-5.35L114.99-5.35 116.64-1.5Q115.39-0.7 113.24-0.1 111.09 0.5 108.04 0.5L108.04 0.5ZM101.49-13.35L112.89-13.35Q112.94-16.45 111.54-17.73 110.14-19 107.54-19L107.54-19Q102.29-19 101.49-13.35L101.49-13.35ZM123.79 0L123.79-22.95 129.09-22.95 129.14-18.75Q130.09-20.85 132.14-22.2 134.19-23.55 136.94-23.55L136.94-23.55Q140.49-23.55 142.39-22.08 144.29-20.6 144.94-17.95 145.59-15.3 145.59-11.05L145.59-11.05 145.59 0 140.19 0 140.19-10.9Q140.19-15.25 139.34-17.18 138.49-19.1 135.84-19.1L135.84-19.1Q134.34-19.1 132.79-18.18 131.24-17.25 130.21-15.5 129.19-13.75 129.19-11.4L129.19-11.4 129.19 0 123.79 0ZM163.24 0.5Q159.84 0.5 157.11-0.98 154.39-2.45 152.79-5.23 151.19-8 151.19-11.75L151.19-11.75Q151.19-15.3 152.66-17.98 154.14-20.65 156.81-22.1 159.49-23.55 162.99-23.55L162.99-23.55Q165.64-23.55 167.56-22.88 169.49-22.2 170.59-21.2L170.59-21.2 168.19-16.85Q166.09-18.95 163.44-18.95L163.44-18.95Q160.24-18.95 158.56-17 156.89-15.05 156.89-11.8L156.89-11.8Q156.89-8.1 158.61-6.05 160.34-4 163.44-4L163.44-4Q164.99-4 166.46-4.45 167.94-4.9 168.74-5.5L168.74-5.5 170.69-1.7Q169.59-0.85 167.61-0.18 165.64 0.5 163.24 0.5L163.24 0.5ZM186.68 0.5Q182.58 0.5 179.83-1.13 177.08-2.75 175.78-5.48 174.48-8.2 174.48-11.45L174.48-11.45Q174.48-15.1 176.01-17.85 177.53-20.6 180.23-22.08 182.93-23.55 186.33-23.55L186.33-23.55Q191.63-23.55 194.21-20.63 196.78-17.7 196.78-12.4L196.78-12.4Q196.78-11.05 196.63-9.6L196.63-9.6 180.13-9.6Q180.68-6.55 182.31-5.2 183.93-3.85 186.83-3.85L186.83-3.85Q189.23-3.85 190.78-4.25 192.33-4.65 193.63-5.35L193.63-5.35 195.28-1.5Q194.03-0.7 191.88-0.1 189.73 0.5 186.68 0.5L186.68 0.5ZM180.13-13.35L191.53-13.35Q191.58-16.45 190.18-17.73 188.78-19 186.18-19L186.18-19Q180.93-19 180.13-13.35L180.13-13.35Z" opacity="1" transform="matrix(1,0,0,1,0,0)" fill="#243cfc" class="wordmark-text-0" data-fill-palette-color="primary"></path></svg></g></svg></g></svg></g></svg></g></svg></g></svg></g><defs></defs></svg><rect width="386.6122" height="60.2705" fill="none" stroke="none" visibility="hidden"></rect></g></svg></g></svg>